<svg width="528" height="528" viewBox="0 0 528 528" fill="none" xmlns="http://www.w3.org/2000/svg">
<path d="M135.495 453.992C145.032 451.969 171.104 445.776 165.314 428.127C158.973 408.785 136.019 409.335 124.655 412.393C113.291 415.455 93.3768 429.241 99.4445 444.598C106.006 461.181 126.444 455.906 135.495 453.992Z" fill="white" stroke="#333333" stroke-width="1.29929" stroke-miterlimit="10" stroke-linecap="round" stroke-linejoin="round"/>
<path d="M152.667 451.701C159.972 451.701 165.894 445.779 165.894 438.474C165.894 431.169 159.972 425.248 152.667 425.248C145.363 425.248 139.441 431.169 139.441 438.474C139.441 445.779 145.363 451.701 152.667 451.701Z" fill="white" stroke="#333333" stroke-width="1.29929" stroke-miterlimit="10" stroke-linecap="round" stroke-linejoin="round"/>
<path d="M141.281 431.74C141.281 431.74 139.51 422.155 141.281 421.497C143.053 420.843 147.959 426.109 147.959 426.109C147.959 426.109 145.647 426.919 144.226 428.288C142.806 429.657 141.281 431.74 141.281 431.74Z" fill="white" stroke="#333333" stroke-width="1.29929" stroke-miterlimit="10" stroke-linecap="round" stroke-linejoin="round"/>
<path d="M162.04 429.141C162.04 429.141 172.741 427.621 173.032 430.098C173.322 432.575 165.743 436.478 165.743 436.478C165.743 436.478 165.136 433.303 164.054 431.74C162.971 430.176 162.04 429.141 162.04 429.141Z" fill="white" stroke="#333333" stroke-width="1.29929" stroke-miterlimit="10" stroke-linecap="round" stroke-linejoin="round"/>
<path d="M105.33 424.217C105.33 424.217 93.2292 435.49 96.3258 448.968C99.6304 463.347 126.309 472.957 137.769 458.587C146.95 447.076 131.502 440.666 126.842 447.95C120.302 458.167 92.2158 458.947 105.33 424.217Z" fill="#333333" stroke="#333333" stroke-width="1.29929" stroke-miterlimit="10" stroke-linecap="round" stroke-linejoin="round"/>
<path d="M144.226 438.765C144.226 438.765 136.097 437.452 131.143 439.276" stroke="#333333" stroke-width="1.29929" stroke-miterlimit="10" stroke-linecap="round" stroke-linejoin="round"/>
<path d="M160.428 443.65C160.428 443.65 167.345 447.461 168.588 448.968" stroke="#333333" stroke-width="1.29929" stroke-miterlimit="10" stroke-linecap="round" stroke-linejoin="round"/>
<path d="M144.226 441.099C144.226 441.099 137.05 440.952 132.164 443.286" stroke="#333333" stroke-width="1.29929" stroke-miterlimit="10" stroke-linecap="round" stroke-linejoin="round"/>
<path d="M159.008 446.309C159.008 446.309 165.674 451.662 166.878 455.707" stroke="#333333" stroke-width="1.29929" stroke-miterlimit="10" stroke-linecap="round" stroke-linejoin="round"/>
<path d="M160.428 301.499L382.724 299.316" stroke="#333333" stroke-width="1.29929" stroke-miterlimit="10" stroke-linecap="round" stroke-linejoin="round"/>
<path d="M318.024 421.44L368.558 420.838L364.469 436.079L318.024 436.192V421.44Z" fill="white" stroke="#333333" stroke-width="1.29929" stroke-miterlimit="10" stroke-linecap="round" stroke-linejoin="round"/>
<path d="M197.973 234.395C197.973 234.395 182.508 256.037 186.007 273.525C189.502 291.009 209.598 302.599 240.651 301.503C238.026 327.731 242.768 422.168 242.768 422.168L318.023 421.44L361.74 420.834V293.846L300.777 246.808C300.773 246.812 271.704 235.144 197.973 234.395Z" fill="#333333" stroke="#333333" stroke-width="1.29929" stroke-miterlimit="10" stroke-linecap="round" stroke-linejoin="round"/>
<path d="M276.056 257.349L314.961 292.759L318.023 421.441" stroke="#262626" stroke-width="1.29929" stroke-miterlimit="10" stroke-linecap="round" stroke-linejoin="round"/>
<path d="M236.713 422.22L328.222 421.441L324.727 436.166L241.382 436.478L236.713 422.22Z" fill="white" stroke="#333333" stroke-width="1.29929" stroke-miterlimit="10" stroke-linecap="round" stroke-linejoin="round"/>
<path d="M357.366 436.192V446.309L383.985 465.17L318.024 465.746V436.192H357.366Z" fill="white" stroke="#333333" stroke-width="1.29929" stroke-miterlimit="10" stroke-linecap="round" stroke-linejoin="round"/>
<path d="M243.271 436.477L318.024 436.192V447.292L344.477 465.43L243.943 466.63L243.271 436.477Z" fill="white" stroke="#333333" stroke-width="1.29929" stroke-miterlimit="10" stroke-linecap="round" stroke-linejoin="round"/>
<path d="M256.871 219.124L258.789 197.461L257.261 174.727L258.789 197.461L275.403 185.014C275.403 185.014 253.766 154.84 244.147 153.311C238.681 157.243 234.311 150.907 234.311 150.907C234.311 150.907 204.886 151.843 197.021 179.821C214.072 185.286 226.446 188.608 226.446 188.608L229.941 175.169L222.292 212.108L256.871 219.124Z" fill="white" stroke="#333333" stroke-width="1.29929" stroke-miterlimit="10" stroke-linecap="round" stroke-linejoin="round"/>
<path d="M197.017 179.816C197.017 179.816 186.584 227.184 188.628 230.684C190.668 234.179 247.516 245.695 262.38 246.227C277.244 246.76 272.839 224.702 268.331 222.156C263.818 219.609 222.293 212.104 222.293 212.104L226.446 188.604L197.017 179.816Z" fill="white" stroke="#333333" stroke-width="1.29929" stroke-miterlimit="10" stroke-linecap="round" stroke-linejoin="round"/>
<path d="M259.447 197.132L272.622 187.123L282.834 204.455L272.622 222.377L256.887 218.973L259.447 197.132Z" fill="white" stroke="#333333" stroke-width="1.29929" stroke-miterlimit="10" stroke-linecap="round" stroke-linejoin="round"/>
<path d="M259.993 153.415C269.551 150.188 265.766 132.059 260.647 124.783C251.578 111.886 229.282 114.073 223.487 131.561C222.222 135.372 214.453 137.044 217.476 143.146C219.589 147.408 228.078 145.191 228.078 145.191C228.078 145.191 254.271 155.347 259.993 153.415Z" fill="#333333" stroke="#333333" stroke-width="1.29929" stroke-miterlimit="10" stroke-linecap="round" stroke-linejoin="round"/>
<path d="M234.309 150.903L236.605 144.346C236.605 144.346 234.201 141.067 234.309 139.209C234.418 137.352 230.702 138.664 231.685 134.84C232.668 131.015 237.475 135.277 239.883 136.26C242.291 137.243 246.744 134.9 249.065 134.731C250.646 134.614 252.248 136.143 252.703 137.157C253.621 139.214 252.344 142.163 249.94 143.584C247.536 145.004 243.929 145.225 243.929 145.225L243.569 153.692C243.569 153.692 243.062 155.477 238.359 154.177C233.651 152.869 234.309 150.903 234.309 150.903Z" fill="white" stroke="#333333" stroke-width="1.29929" stroke-miterlimit="10" stroke-linecap="round" stroke-linejoin="round"/>
<path d="M50.5959 247.224H486" stroke="#333333" stroke-width="1.29929" stroke-miterlimit="10" stroke-linecap="round" stroke-linejoin="round"/>
<path d="M99.4492 481.39L160.429 247.224" stroke="#333333" stroke-width="1.29929" stroke-miterlimit="10"/>
<path d="M106.005 247.224L186.002 491.225" stroke="#333333" stroke-width="1.29929" stroke-miterlimit="10"/>
<path d="M378.132 247.224L459.441 491.225" stroke="#333333" stroke-width="1.29929" stroke-miterlimit="10"/>
<path d="M372.887 478.111L433.867 247.224" stroke="#333333" stroke-width="1.29929" stroke-miterlimit="10"/>
<path d="M75.1129 218.223C75.1129 218.223 66.9533 197.751 55.4417 192.506" stroke="#333333" stroke-width="1.29929" stroke-miterlimit="10" stroke-linecap="round" stroke-linejoin="round"/>
<path d="M55.4415 192.506C55.4415 192.506 46.6627 178.552 43.1633 182.597C38.3862 188.123 55.4415 192.506 55.4415 192.506Z" fill="#00C400" stroke="#333333" stroke-width="1.29929" stroke-miterlimit="10" stroke-linecap="round" stroke-linejoin="round"/>
<path d="M66.8017 203.057C63.6748 196.292 54.5841 209.154 54.5841 209.154C54.5841 209.154 68.5038 206.738 66.8017 203.057Z" fill="#00C400" stroke="#333333" stroke-width="1.29929" stroke-miterlimit="10" stroke-linecap="round" stroke-linejoin="round"/>
<path d="M81.4142 166.967C83.0556 187.621 87.6421 218.609 87.6421 218.609L81.4142 166.967Z" fill="#333333"/>
<path d="M81.4142 166.967C83.0556 187.621 87.6421 218.609 87.6421 218.609" stroke="#333333" stroke-width="1.29929" stroke-miterlimit="10" stroke-linecap="round" stroke-linejoin="round"/>
<path d="M80.4054 147.364C83.0213 147.105 90.7607 170.154 81.172 169.045C72.6703 168.062 80.4054 147.364 80.4054 147.364Z" fill="#00C400" stroke="#333333" stroke-width="1.29929" stroke-miterlimit="10" stroke-linecap="round" stroke-linejoin="round"/>
<path d="M82.5362 178.825C82.5362 178.825 78.0276 171.232 70.5957 170.648C63.1638 170.063 61.9988 170.648 61.9988 170.648" stroke="#333333" stroke-width="1.29929" stroke-miterlimit="10" stroke-linecap="round" stroke-linejoin="round"/>
<path d="M61.7077 169.846C60.3737 161.111 47.3549 171.596 47.3549 171.596C47.3549 171.596 62.6172 175.819 61.7077 169.846Z" fill="#00C400" stroke="#333333" stroke-width="1.29929" stroke-miterlimit="10" stroke-linecap="round" stroke-linejoin="round"/>
<path d="M83.6799 188.864C83.6799 188.864 87.2746 181.623 96.3177 176.62C103.165 172.831 107.028 171.709 107.028 171.709" stroke="#333333" stroke-width="1.29929" stroke-miterlimit="10" stroke-linecap="round" stroke-linejoin="round"/>
<path d="M107.465 171.709C104.62 161.254 128.739 167.789 128.739 167.789C128.739 167.789 109.488 179.141 107.465 171.709Z" fill="#00C400" stroke="#333333" stroke-width="1.29929" stroke-miterlimit="10" stroke-linecap="round" stroke-linejoin="round"/>
<path d="M101.086 218.613C101.086 218.613 100.648 205.252 105.456 201.467" stroke="#333333" stroke-width="1.29929" stroke-miterlimit="10" stroke-linecap="round" stroke-linejoin="round"/>
<path d="M122.234 189.206C122.234 189.206 99.0807 193.87 105.075 201.463C109.12 206.586 122.234 189.206 122.234 189.206Z" fill="#00C400" stroke="#333333" stroke-width="1.29929" stroke-miterlimit="10" stroke-linecap="round" stroke-linejoin="round"/>
<path d="M95.3514 195.33C100.761 192.792 101.908 208.552 101.908 208.552C101.908 208.552 90.0546 197.816 95.3514 195.33Z" fill="#00C400" stroke="#333333" stroke-width="1.29929" stroke-miterlimit="10" stroke-linecap="round" stroke-linejoin="round"/>
<path d="M108.418 218.223H69.2224V247.219H108.418V218.223Z" fill="#666666" stroke="#333333" stroke-width="1.29929" stroke-miterlimit="10" stroke-linecap="round" stroke-linejoin="round"/>
<path d="M256.887 247.25L297.04 165.828H405.162L369.613 247.25H256.887Z" fill="#00C400" stroke="#333333" stroke-width="1.29929" stroke-miterlimit="10" stroke-linecap="round" stroke-linejoin="round"/>
<path d="M340.972 202.619C340.972 202.619 336.819 201.488 333.87 203.567C332.592 204.468 328.56 207.612 330.669 210.233C332.778 212.857 336.711 210.562 338.244 208.266C339.773 205.971 340.972 202.619 340.972 202.619Z" fill="white" stroke="#333333" stroke-width="1.29929" stroke-miterlimit="10" stroke-linecap="round" stroke-linejoin="round"/>
<path d="M453.834 238.99L468.113 128.681L403.379 93.4182" stroke="#333333" stroke-width="1.29929" stroke-miterlimit="10" stroke-linecap="round" stroke-linejoin="round"/>
<path d="M403.378 93.4182L372.083 106.675L403.998 126.494L403.378 93.4182Z" fill="#CCCCCC" stroke="#333333" stroke-width="1.29929" stroke-miterlimit="10" stroke-linecap="round" stroke-linejoin="round"/>
<path d="M387.622 126.13C392.193 126.13 395.898 122.424 395.898 117.853C395.898 113.282 392.193 109.577 387.622 109.577C383.051 109.577 379.345 113.282 379.345 117.853C379.345 122.424 383.051 126.13 387.622 126.13Z" fill="white" stroke="#333333" stroke-width="1.29929" stroke-miterlimit="10" stroke-linecap="round" stroke-linejoin="round"/>
<path d="M474.569 237.855H432.537V246.79H474.569V237.855Z" fill="#CCCCCC" stroke="#333333" stroke-width="1.29929" stroke-miterlimit="10" stroke-linecap="round" stroke-linejoin="round"/>
<path d="M335.061 110.556L330.561 107.494C330.561 107.494 319.578 120.499 322.965 123.176C326.672 126.108 335.061 110.556 335.061 110.556Z" fill="white" stroke="#333333" stroke-width="1.29929" stroke-miterlimit="10" stroke-linecap="round" stroke-linejoin="round"/>
<path d="M338.33 110.625C343.956 110.625 348.517 106.065 348.517 100.439C348.517 94.813 343.956 90.2524 338.33 90.2524C332.704 90.2524 328.144 94.813 328.144 100.439C328.144 106.065 332.704 110.625 338.33 110.625Z" fill="#CCCCCC" stroke="#333333" stroke-width="1.29929" stroke-miterlimit="10" stroke-linecap="round" stroke-linejoin="round"/>
<path d="M338.331 106.97C341.665 106.97 344.368 104.267 344.368 100.932C344.368 97.598 341.665 94.895 338.331 94.895C334.996 94.895 332.293 97.598 332.293 100.932C332.293 104.267 334.996 106.97 338.331 106.97Z" fill="white" stroke="#333333" stroke-width="1.29929" stroke-miterlimit="10" stroke-linecap="round" stroke-linejoin="round"/>
<path d="M324.308 116.138C324.308 116.138 324.226 118.005 325.62 119.482C326.413 120.322 328.041 120.777 328.041 120.777C328.041 120.777 324.91 124.891 322.944 123.089C320.973 121.283 324.308 116.138 324.308 116.138Z" fill="#CCCCCC" stroke="#333333" stroke-width="1.29929" stroke-miterlimit="10" stroke-linecap="round" stroke-linejoin="round"/>
<path d="M234.237 73.0886C241.52 73.0886 247.424 67.1843 247.424 59.9009C247.424 52.6175 241.52 46.7131 234.237 46.7131C226.953 46.7131 221.049 52.6175 221.049 59.9009C221.049 67.1843 226.953 73.0886 234.237 73.0886Z" fill="#CCCCCC" stroke="#333333" stroke-width="1.29929" stroke-miterlimit="10" stroke-linecap="round" stroke-linejoin="round"/>
<path d="M244.44 51.5508C249.806 52.3737 253.639 54.6734 254.219 57.9433C255.155 63.2141 247.182 68.0734 236.567 69.9573C225.951 71.8413 216.705 70.031 215.769 64.7602C215.25 61.8195 217.463 58.7099 221.369 56.2152" stroke="#333333" stroke-width="1.29929" stroke-miterlimit="10" stroke-linecap="round" stroke-linejoin="round"/>
<path d="M253.47 41.6849C254.999 41.6849 256.238 40.4459 256.238 38.9174C256.238 37.389 254.999 36.1499 253.47 36.1499C251.942 36.1499 250.703 37.389 250.703 38.9174C250.703 40.4459 251.942 41.6849 253.47 41.6849Z" fill="white" stroke="#333333" stroke-width="1.29929" stroke-miterlimit="10" stroke-linecap="round" stroke-linejoin="round"/>
<path d="M210.377 77.6448C211.905 77.6448 213.144 76.4058 213.144 74.8774C213.144 73.349 211.905 72.1099 210.377 72.1099C208.848 72.1099 207.609 73.349 207.609 74.8774C207.609 76.4058 208.848 77.6448 210.377 77.6448Z" fill="white" stroke="#333333" stroke-width="1.29929" stroke-miterlimit="10" stroke-linecap="round" stroke-linejoin="round"/>
<path d="M131.939 121.102C138.053 121.102 143.009 116.145 143.009 110.032C143.009 103.918 138.053 98.9617 131.939 98.9617C125.825 98.9617 120.869 103.918 120.869 110.032C120.869 116.145 125.825 121.102 131.939 121.102Z" fill="white" stroke="#333333" stroke-width="1.29929" stroke-miterlimit="10" stroke-linecap="round" stroke-linejoin="round"/>
<path d="M135 113.891L129.028 112.505" stroke="#333333" stroke-width="1.29929" stroke-miterlimit="10" stroke-linecap="round" stroke-linejoin="round"/>
<path d="M137.774 110.759L134.201 106.532" stroke="#333333" stroke-width="1.29929" stroke-miterlimit="10" stroke-linecap="round" stroke-linejoin="round"/>
<path d="M126.769 110.759C126.769 110.759 125.678 109.01 126.405 107.918C127.133 106.827 129.03 107.918 129.03 107.918C129.03 107.918 129.03 105.004 130.052 104.202C130.862 103.566 132.819 104.856 132.819 104.856" stroke="#333333" stroke-width="1.29929" stroke-miterlimit="10" stroke-linecap="round" stroke-linejoin="round"/>
<path d="M143.382 111.63C143.382 111.63 145.933 112.505 145.785 113.891C145.638 115.277 139.518 122.561 138.137 122.709C136.751 122.856 135.573 120.495 135.573 120.495C135.573 120.495 139.367 118.993 140.684 116.827C141.996 114.657 143.382 111.63 143.382 111.63Z" fill="white" stroke="#333333" stroke-width="1.29929" stroke-miterlimit="10" stroke-linecap="round" stroke-linejoin="round"/>
<path d="M145.387 115.523C145.387 115.523 147.756 115.64 147.535 117.026C147.314 118.412 142.273 124.25 140.684 123.475C139.493 122.89 139.384 121.977 140.073 121.292C141.203 120.171 145.387 115.523 145.387 115.523Z" fill="white" stroke="#333333" stroke-width="1.29929" stroke-miterlimit="10" stroke-linecap="round" stroke-linejoin="round"/>
<path d="M147.275 118.213L150.848 121.435C150.848 121.435 148.289 124.969 147.548 124.896C146.803 124.822 143.434 122.496 143.434 122.496L147.275 118.213Z" fill="white" stroke="#333333" stroke-width="1.29929" stroke-miterlimit="10" stroke-linecap="round" stroke-linejoin="round"/>
<path d="M159.445 98.9618C159.445 98.9618 169.934 85.2197 188.735 73.6387L159.445 98.9618Z" fill="white"/>
<path d="M159.445 98.9618C159.445 98.9618 169.934 85.2197 188.735 73.6387" stroke="#333333" stroke-width="1.29929" stroke-miterlimit="10" stroke-linecap="round" stroke-linejoin="round"/>
<path d="M166.479 100.049C166.479 100.049 173.257 89.8495 184.912 81.3955L166.479 100.049Z" fill="white"/>
<path d="M166.479 100.049C166.479 100.049 173.257 89.8495 184.912 81.3955" stroke="#333333" stroke-width="1.29929" stroke-miterlimit="10" stroke-linecap="round" stroke-linejoin="round"/>
<path d="M277.659 63.1057C277.659 63.1057 296.455 64.5609 315.256 82.0493" stroke="#333333" stroke-width="1.29929" stroke-miterlimit="10" stroke-linecap="round" stroke-linejoin="round"/>
<path d="M284.909 71.2307C284.909 71.2307 298.244 74.2927 311.574 85.328" stroke="#333333" stroke-width="1.29929" stroke-miterlimit="10" stroke-linecap="round" stroke-linejoin="round"/>
</svg>
